<?xml version="1.0" standalone="no"?>
<!DOCTYPE svg PUBLIC "-//W3C//DTD SVG 20010904//EN"
 "http://www.w3.org/TR/2001/REC-SVG-20010904/DTD/svg10.dtd">
<svg version="1.0" xmlns="http://www.w3.org/2000/svg"
 width="968.000000pt" height="968.000000pt" viewBox="0 0 968.000000 968.000000"
 preserveAspectRatio="xMidYMid meet">
<metadata>
Created by potrace 1.14, written by Peter Selinger 2001-2017
</metadata>
<g transform="translate(0.000000,968.000000) scale(0.100000,-0.100000)"
fill="#000000" stroke="none">
<path d="M4790 9674 c-118 -11 -312 -37 -370 -50 -273 -62 -369 -93 -577 -183
-246 -107 -445 -227 -599 -361 -22 -19 -69 -60 -105 -90 -137 -117 -315 -304
-404 -425 -17 -22 -32 -42 -35 -45 -12 -10 -97 -137 -112 -166 -8 -16 -41 -71
-72 -122 -276 -456 -418 -1062 -351 -1506 8 -55 15 -115 15 -134 0 -20 6 -61
14 -91 8 -31 22 -87 31 -126 38 -168 93 -334 156 -473 16 -35 29 -67 29 -71 0
-5 17 -28 38 -52 36 -43 56 -78 143 -264 86 -185 112 -243 165 -375 30 -74 59
-144 64 -155 19 -40 99 -243 115 -291 10 -27 23 -62 30 -79 17 -38 109 -297
124 -350 7 -22 16 -49 21 -60 13 -31 71 -211 86 -268 7 -29 23 -86 34 -127
101 -361 171 -713 225 -1135 24 -181 18 -172 192 -317 28 -24 52 -49 52 -57 1
-12 34 -46 93 -96 14 -12 18 -23 13 -38 -4 -12 -8 -94 -9 -182 l-2 -160 38
-41 c47 -51 48 -79 7 -130 -28 -36 -31 -44 -26 -93 4 -38 13 -61 30 -80 40
-42 39 -63 -4 -126 -51 -75 -53 -123 -9 -155 38 -27 40 -70 5 -116 -20 -27
-25 -44 -25 -95 0 -59 2 -64 39 -98 37 -34 39 -40 34 -78 -6 -46 16 -93 65
-136 26 -23 34 -32 70 -89 9 -15 28 -33 42 -40 14 -7 33 -20 43 -29 10 -10 41
-32 68 -50 27 -19 51 -41 54 -49 3 -9 25 -37 50 -63 25 -27 45 -54 45 -62 0
-7 27 -46 60 -85 33 -39 60 -77 60 -84 0 -7 15 -27 33 -46 26 -26 51 -38 108
-52 99 -25 384 -35 500 -19 115 17 169 31 169 45 0 7 29 41 65 76 36 36 82 90
103 120 20 30 45 64 55 75 23 25 57 89 57 108 0 17 54 57 77 57 18 0 56 20 38
20 -5 0 4 12 20 28 17 15 41 44 55 64 13 20 42 46 62 58 21 12 38 25 38 31 0
5 10 9 23 10 31 1 87 70 93 114 6 53 -11 107 -46 140 -39 37 -38 57 5 89 33
26 35 30 35 87 0 61 -15 104 -45 129 -19 16 -13 70 12 109 28 43 26 107 -3
157 -32 54 -28 76 25 129 33 33 40 47 41 78 0 39 -25 107 -40 107 -26 0 -35
92 -16 165 9 32 16 78 16 101 0 59 16 96 53 119 18 11 39 34 47 50 16 31 89
105 160 163 22 18 46 46 54 61 12 23 51 245 62 351 2 19 6 50 9 68 3 17 8 49
11 70 2 20 9 60 14 87 6 28 19 97 30 155 33 175 71 335 135 570 37 138 171
546 222 680 24 63 46 122 47 130 2 8 11 31 19 50 8 19 32 76 52 125 20 50 40
99 45 110 5 11 23 54 40 95 17 41 42 100 56 131 13 31 24 59 24 63 0 3 18 43
39 88 39 83 74 160 116 253 13 28 37 81 54 118 17 37 36 88 41 112 5 24 28 88
51 142 97 233 97 232 128 338 41 144 51 182 66 270 38 226 44 309 40 530 -3
205 -11 285 -47 480 -17 95 -78 326 -94 356 -8 16 -14 33 -14 39 0 12 -66 182
-80 208 -5 9 -21 42 -34 72 -51 113 -156 285 -277 450 -75 104 -188 227 -344
377 -37 35 -138 115 -174 138 -9 6 -30 21 -47 35 -18 14 -68 48 -113 75 -45
28 -96 59 -114 70 -128 82 -368 185 -547 235 -41 12 -97 28 -125 36 -52 15
-109 25 -280 49 -103 15 -375 26 -455 19z"/>
<path d="M5332 120 c0 -14 2 -19 5 -12 2 6 2 18 0 25 -3 6 -5 1 -5 -13z"/>
</g>
</svg>
